<svg width="31" height="30" viewBox="0 0 31 30" fill="none" xmlns="http://www.w3.org/2000/svg">
<path d="M15.5 30C18.4667 30 21.3668 29.1203 23.8335 27.472C26.3003 25.8238 28.2229 23.4811 29.3582 20.7403C30.4935 17.9994 30.7906 14.9834 30.2118 12.0736C29.633 9.16393 28.2044 6.49119 26.1066 4.3934C24.0088 2.29561 21.3361 0.867005 18.4263 0.288227C15.5166 -0.290552 12.5006 0.00649891 9.75974 1.14181C7.01885 2.27713 4.67617 4.19971 3.02795 6.66645C1.37973 9.13319 0.499998 12.0333 0.499998 15C0.499998 18.9782 2.08035 22.7936 4.89339 25.6066C7.70644 28.4196 11.5217 30 15.5 30ZM6.35409 14.0359L11.8086 8.58137C12.0658 8.33297 12.4103 8.19552 12.7678 8.19863C13.1254 8.20174 13.4674 8.34515 13.7202 8.59798C13.973 8.85081 14.1164 9.19283 14.1196 9.55037C14.1227 9.90791 13.9852 10.2524 13.7368 10.5095L10.61 13.6364L23.6818 13.6364C24.0435 13.6364 24.3903 13.78 24.646 14.0358C24.9018 14.2915 25.0454 14.6383 25.0454 15C25.0454 15.3617 24.9018 15.7085 24.646 15.9642C24.3903 16.22 24.0435 16.3636 23.6818 16.3636L10.61 16.3636L13.7368 19.4905C13.8671 19.6162 13.9709 19.7667 14.0424 19.9331C14.1139 20.0995 14.1515 20.2784 14.1531 20.4595C14.1546 20.6405 14.1201 20.8201 14.0516 20.9877C13.983 21.1553 13.8818 21.3075 13.7537 21.4355C13.6257 21.5636 13.4734 21.6648 13.3058 21.7334C13.1383 21.802 12.9587 21.8365 12.7776 21.8349C12.5966 21.8333 12.4176 21.7957 12.2513 21.7242C12.0849 21.6528 11.9344 21.5489 11.8086 21.4186L6.35409 15.9641C6.09844 15.7084 5.95483 15.3616 5.95483 15C5.95483 14.6384 6.09844 14.2916 6.35409 14.0359Z" fill="white"/>
</svg>
