<svg width="60" height="60" viewBox="0 0 60 60" fill="none" xmlns="http://www.w3.org/2000/svg">
<path d="M60 30C60 24.0666 58.2405 18.2664 54.9441 13.3329C51.6476 8.39943 46.9623 4.55425 41.4805 2.28363C35.9987 0.0129976 29.9667 -0.581103 24.1473 0.576453C18.3279 1.73401 12.9824 4.59123 8.7868 8.78681C4.59123 12.9824 1.73401 18.3279 0.576453 24.1473C-0.581106 29.9667 0.0129951 35.9987 2.28362 41.4805C4.55425 46.9623 8.39942 51.6476 13.3329 54.9441C18.2664 58.2405 24.0666 60 30 60C37.9565 60 45.5871 56.8393 51.2132 51.2132C56.8393 45.5871 60 37.9565 60 30ZM28.0718 48.2918L17.1627 37.3827C16.6659 36.8684 16.391 36.1794 16.3973 35.4644C16.4035 34.7493 16.6903 34.0652 17.196 33.5596C17.7016 33.0539 18.3856 32.7671 19.1007 32.7609C19.8158 32.7547 20.5047 33.0296 21.0191 33.5264L27.2727 39.78L27.2727 13.6364C27.2727 12.9131 27.5601 12.2194 28.0715 11.7079C28.583 11.1964 29.2767 10.9091 30 10.9091C30.7233 10.9091 31.417 11.1964 31.9285 11.7079C32.4399 12.2194 32.7273 12.9131 32.7273 13.6364L32.7273 39.78L38.9809 33.5264C39.2325 33.2659 39.5334 33.0581 39.8662 32.9152C40.1989 32.7722 40.5568 32.697 40.9189 32.6939C41.281 32.6907 41.6402 32.7597 41.9753 32.8969C42.3105 33.034 42.615 33.2365 42.8711 33.4926C43.1272 33.7486 43.3297 34.0531 43.4668 34.3883C43.6039 34.7235 43.6729 35.0826 43.6698 35.4447C43.6666 35.8069 43.5914 36.1647 43.4485 36.4975C43.3055 36.8302 43.0978 37.1311 42.8373 37.3827L31.9282 48.2918C31.4167 48.8031 30.7232 49.0903 30 49.0903C29.2768 49.0903 28.5833 48.8031 28.0718 48.2918Z" fill="white"/>
</svg>
