<svg width="381" height="381" viewBox="0 0 381 381" fill="none" xmlns="http://www.w3.org/2000/svg">
<g clip-path="url(#clip0_218_93)">
<path d="M44.8089 70.9682L42.9191 69.2772L69.327 42.8693L71.2168 44.5602L71.1173 44.6597L44.8089 70.9682Z" fill="#00A2E2"/>
<path d="M131.365 8.95511L8.95142 131.368L10.7449 133.162L133.158 10.7486L131.365 8.95511Z" fill="#00A2E2"/>
<path d="M167.288 1.14142L1.16333 167.266L2.95684 169.06L169.082 2.93492L167.288 1.14142Z" fill="#00A2E2"/>
<path d="M196.636 0.00342105L0.0217285 196.617L1.81524 198.411L198.429 1.79693L196.636 0.00342105Z" fill="#00A2E2"/>
<path d="M222.065 2.7045L2.62842 222.141L4.42192 223.935L223.859 4.498L222.065 2.7045Z" fill="#00A2E2"/>
<path d="M244.845 8.13919L7.99536 244.907L9.78845 246.7L246.638 9.93291L244.845 8.13919Z" fill="#00A2E2"/>
<path d="M265.427 15.7109L15.6425 265.496L17.436 267.289L267.221 17.5045L265.427 15.7109Z" fill="#00A2E2"/>
<path d="M284.12 25.0585L25.0508 284.127L26.8442 285.921L285.913 26.8519L284.12 25.0585Z" fill="#00A2E2"/>
<path d="M301.098 36.0491L36.1318 301.107L37.9257 302.9L302.891 37.8423L301.098 36.0491Z" fill="#00A2E2"/>
<path d="M316.636 48.8112L48.7056 316.742L50.499 318.535L318.43 50.6046L316.636 48.8112Z" fill="#00A2E2"/>
<path d="M330.722 62.8854L62.826 330.781L64.6196 332.575L332.515 64.6789L330.722 62.8854Z" fill="#00A2E2"/>
<path d="M343.283 78.282L78.423 343.235L80.2168 345.028L345.077 80.0752L343.283 78.282Z" fill="#00A2E2"/>
<path d="M354.341 95.5353L95.4482 354.428L97.2417 356.222L356.135 97.3288L354.341 95.5353Z" fill="#00A2E2"/>
<path d="M363.764 114.272L114.26 363.776L116.054 365.569L365.558 116.066L363.764 114.272Z" fill="#00A2E2"/>
<path d="M371.303 135L134.805 371.416L136.598 373.21L373.096 136.794L371.303 135Z" fill="#00A2E2"/>
<path d="M376.58 157.547L157.639 376.565L159.433 378.358L378.374 159.341L376.58 157.547Z" fill="#00A2E2"/>
<path d="M379.209 183.186L183.193 379.202L184.986 380.995L381.002 184.979L379.209 183.186Z" fill="#00A2E2"/>
<path d="M377.927 212.628L212.611 377.944L214.404 379.737L379.72 214.421L377.927 212.628Z" fill="#00A2E2"/>
<path d="M250.602 371.7L248.712 370.009L369.91 248.811L371.65 250.602L371.601 250.651L250.602 371.7Z" fill="#00A2E2"/>
<path d="M315.652 334.799L313.861 333.008L315.005 333.655L314.11 332.76L332.809 314.01L334.848 315.552L334.649 315.801L315.652 334.799Z" fill="#00A2E2"/>
</g>
<defs>
<clipPath id="clip0_218_93">
<rect width="381" height="381" fill="white"/>
</clipPath>
</defs>
</svg>
