<svg width="40" height="40" viewBox="0 0 40 40" fill="none" xmlns="http://www.w3.org/2000/svg">
<path d="M20.0004 0C8.95482 0 0 8.95338 0 19.9992C0 31.0451 8.95482 40 20.0004 40C31.0452 40 40 31.0451 40 19.9992C40 8.95338 31.0452 0 20.0004 0ZM19.0641 10.5654C19.2269 10.4163 19.3412 10.3956 19.906 10.4129C20.2005 10.4233 20.6336 10.4579 20.8691 10.4856C22.061 10.6346 23.0241 10.9222 24.0808 11.4383C25.1202 11.9477 25.7853 12.4293 26.6653 13.3058C27.4899 14.1339 27.9472 14.761 28.4323 15.7345C29.1078 17.0926 29.4924 18.7071 29.5583 20.4845C29.5826 21.0906 29.5652 21.2259 29.4266 21.399C29.1633 21.7351 28.5847 21.6797 28.3873 21.3021C28.3249 21.1773 28.3076 21.0701 28.2868 20.585C28.2521 19.8401 28.2002 19.3585 28.0962 18.7834C27.6875 16.5279 26.6065 14.7263 24.8812 13.434C23.4433 12.3531 21.9571 11.8265 20.0101 11.7121C19.3518 11.6741 19.2375 11.6498 19.0886 11.5354C18.8112 11.3172 18.7973 10.8044 19.0641 10.5654ZM23.1938 15.0278C22.4974 14.6121 21.4685 14.3037 20.5296 14.2275C20.19 14.1997 20.0029 14.1305 19.8748 13.9815C19.6773 13.7563 19.6565 13.4514 19.8228 13.1985C20.003 12.9179 20.28 12.8728 21.1082 12.9976C23.2112 13.3059 24.8395 14.283 25.9066 15.8697C26.506 16.7636 26.8801 17.8134 27.0083 18.9393C27.0533 19.3517 27.0533 20.1035 27.0048 20.2282C26.9597 20.346 26.8142 20.5054 26.6895 20.5711C26.5544 20.6404 26.2669 20.6335 26.1075 20.5504C25.8407 20.4153 25.761 20.2005 25.761 19.6184C25.761 18.7211 25.5289 17.7753 25.127 17.0407C24.6697 16.2023 24.0045 15.5094 23.1938 15.0278ZM24.3648 19.6461C24.1604 19.8332 23.7828 19.8402 23.5541 19.6635C23.3878 19.5387 23.3359 19.4071 23.2977 19.0503C23.2527 18.5756 23.1695 18.243 23.0276 17.9346C22.7227 17.2798 22.1856 16.9403 21.2779 16.8294C20.8518 16.7775 20.7235 16.729 20.585 16.5661C20.3321 16.2646 20.4291 15.7762 20.779 15.596C20.9107 15.5301 20.9661 15.5232 21.2571 15.5406C21.4373 15.551 21.7041 15.5821 21.8461 15.6134C22.5286 15.7589 23.0518 16.0187 23.4987 16.4379C24.0738 16.9819 24.3891 17.6402 24.5277 18.586C24.6212 19.2026 24.5831 19.4452 24.3648 19.6461ZM29.5408 28.7477C29.2844 29.4094 28.2867 30.6498 27.5902 31.1798C26.9597 31.6579 26.5129 31.8415 25.9239 31.8693C25.4388 31.8935 25.2379 31.8519 24.6177 31.5956C19.7534 29.5896 15.8697 26.5962 12.7863 22.4837C11.1753 20.3356 9.94879 18.1079 9.11036 15.797C8.6219 14.4493 8.59762 13.8638 8.99949 13.1743C9.17282 12.8833 9.9107 12.1626 10.4477 11.7607C11.3416 11.0955 11.7539 10.8495 12.083 10.7802C12.3081 10.7317 12.6996 10.7698 12.9491 10.8599C13.0704 10.9014 13.2574 10.9984 13.3649 11.0677C14.0231 11.5043 15.8559 13.8498 16.4552 15.0209C16.7981 15.6895 16.9125 16.1849 16.8051 16.5522C16.6942 16.9472 16.5106 17.1551 15.6895 17.8168C15.3604 18.0836 15.052 18.3573 15.0036 18.4301C14.8788 18.6102 14.7784 18.9636 14.7784 19.213C14.7819 19.7917 15.156 20.8415 15.648 21.6487C16.0291 22.2758 16.7116 23.0795 17.3872 23.6963C18.1805 24.424 18.8804 24.9193 19.6702 25.3108C20.6853 25.8166 21.3055 25.9448 21.7595 25.7335C21.8737 25.6815 21.995 25.6122 22.0332 25.5811C22.0678 25.5499 22.3346 25.2243 22.6256 24.864C23.1868 24.1571 23.3151 24.0429 23.6996 23.9112C24.1881 23.7449 24.687 23.7899 25.1893 24.0463C25.5704 24.2438 26.4019 24.7601 26.9389 25.1342C27.6456 25.6297 29.1562 26.8631 29.3607 27.1091C29.7211 27.5525 29.7833 28.1205 29.5408 28.7477Z" fill="white"/>
</svg>
