<svg width="30" height="30" viewBox="0 0 30 30" fill="none" xmlns="http://www.w3.org/2000/svg">
<path d="M5.83347 28.2353L5.83347 22.9412L16.8834 22.9412C17.2929 24.6 18.2585 26.0443 19.6001 27.0045C20.9416 27.9646 22.5674 28.3749 24.1737 28.1588C25.7801 27.9427 27.2573 27.1149 28.3294 25.83C29.4016 24.5451 29.9954 22.891 30 21.1765C29.9996 20.7441 29.9605 20.3128 29.8833 19.8882C29.9605 19.6405 29.9999 19.3814 30 19.1206C30 17.2059 28.3333 17.2059 28.3333 15.3C28.3333 13.3941 30 13.3853 30 11.4794C30 9.57353 28.3333 9.5647 28.3333 7.65C28.3333 5.73529 30 5.74411 30 3.82941C30 2.45294 29.1667 2.0647 28.6583 1.24411C28.4332 0.862639 28.1199 0.54822 27.7481 0.330538C27.3763 0.112859 26.9582 -0.000903354 26.5334 -3.06716e-06L4.16681 -2.08949e-06C3.06175 -2.04118e-06 2.00194 0.464807 1.22055 1.29217C0.43915 2.11954 0.000165747 3.24169 0.000165798 4.41176L0.000166724 25.5882C-0.00244047 25.8847 0.0255024 26.1805 0.0834996 26.4706C0.275607 27.4671 0.786981 28.3627 1.53107 29.0059C2.27516 29.649 3.20627 30.0002 4.16681 30C4.60884 30 5.03276 29.8141 5.34531 29.4831C5.65787 29.1522 5.83347 28.7033 5.83347 28.2353ZM23.3334 26.4706C22.3004 26.4693 21.2931 26.1293 20.45 25.4973C19.6069 24.8654 18.9694 23.9724 18.6251 22.9412C18.5342 22.6742 18.4645 22.3998 18.4167 22.1206L18.4167 22.0059C18.3679 21.7322 18.34 21.4549 18.3334 21.1765C18.3334 20.1294 18.6266 19.1058 19.176 18.2352C19.7254 17.3646 20.5063 16.686 21.42 16.2853C22.3336 15.8846 23.3389 15.7798 24.3088 15.9841C25.2787 16.1883 26.1696 16.6926 26.8689 17.433C27.5681 18.1734 28.0443 19.1167 28.2373 20.1436C28.4302 21.1706 28.3312 22.2351 27.9527 23.2024C27.5743 24.1698 26.9334 24.9966 26.1112 25.5784C25.289 26.1601 24.3223 26.4706 23.3334 26.4706ZM1.66682 4.41176C1.66682 3.70972 1.93021 3.03643 2.39905 2.54001C2.86789 2.04359 3.50377 1.7647 4.16681 1.7647L26.5334 1.7647C26.675 1.7644 26.8143 1.80232 26.9383 1.87488C27.0622 1.94744 27.1666 2.05225 27.2417 2.17941C27.4474 2.51053 27.6817 2.82068 27.9417 3.10588C28.3167 3.54705 28.3333 3.58235 28.3333 3.82941C28.3333 4.07647 28.3333 4.11176 27.9417 4.54412C27.5463 4.94221 27.2315 5.42125 27.0164 5.95214C26.8013 6.48303 26.6904 7.05467 26.6904 7.63235C26.6904 8.21002 26.8013 8.78167 27.0164 9.31256C27.2315 9.84345 27.5463 10.3225 27.9417 10.7206C28.3167 11.1529 28.3333 11.1971 28.3333 11.4353C28.3333 11.6735 28.3333 11.7088 27.9417 12.1412C27.1764 12.9075 26.7197 13.9567 26.6667 15.0706C26.2032 14.7939 25.711 14.5748 25.2 14.4176L25 14.3647C24.8054 14.3108 24.6078 14.2696 24.4084 14.2412C24.3307 14.2363 24.2527 14.2363 24.175 14.2412C23.8973 14.1805 23.6162 14.1393 23.3334 14.1176C22.476 14.1171 21.6267 14.294 20.8334 14.6382L20.8334 4.41176C20.8334 4.17775 20.7456 3.95332 20.5893 3.78784C20.433 3.62237 20.2211 3.52941 20.0001 3.52941C19.779 3.52941 19.5671 3.62237 19.4108 3.78784C19.2545 3.95332 19.1667 4.17775 19.1667 4.41176L19.1667 15.4765C19.162 15.5322 19.162 15.5883 19.1667 15.6441C18.487 16.2291 17.9209 16.9483 17.5001 17.7618L17.5001 4.41176C17.5001 4.17775 17.4123 3.95332 17.256 3.78784C17.0997 3.62237 16.8878 3.52941 16.6667 3.52941C16.4457 3.52941 16.2338 3.62237 16.0775 3.78784C15.9212 3.95332 15.8334 4.17775 15.8334 4.41176L15.8334 18.5294C15.8334 18.7634 15.9212 18.9879 16.0775 19.1533C16.2338 19.3188 16.4457 19.4118 16.6667 19.4118C16.7467 19.4077 16.8255 19.3898 16.9001 19.3588C16.7462 19.951 16.6678 20.5623 16.6667 21.1765L4.16681 21.1765C3.30241 21.175 2.44849 21.3769 1.66682 21.7676L1.66682 4.41176ZM1.75016 26.2765L1.75016 26.0912C1.70744 25.9267 1.67953 25.7583 1.66682 25.5882C1.6652 24.8877 1.9259 24.215 2.39182 23.7176C2.74307 23.3528 3.18541 23.1018 3.66681 22.9941C3.8325 22.9673 3.99939 22.9496 4.16681 22.9412L4.16681 28.2353C3.61655 28.2359 3.08147 28.0443 2.64453 27.6901C2.2076 27.336 1.89323 26.8391 1.75016 26.2765Z" fill="white"/>
<path d="M6.66666 9.70592L6.66666 4.4118C6.66666 4.17779 6.57886 3.95336 6.42258 3.78788C6.2663 3.62241 6.05434 3.52945 5.83333 3.52945C5.61232 3.52945 5.40036 3.62241 5.24408 3.78788C5.0878 3.95336 5 4.17779 5 4.4118L5 9.70592C5 9.93993 5.0878 10.1644 5.24408 10.3298C5.40036 10.4953 5.61232 10.5883 5.83333 10.5883C6.05434 10.5883 6.2663 10.4953 6.42258 10.3298C6.57886 10.1644 6.66666 9.93993 6.66666 9.70592Z" fill="white"/>
<path d="M10.0002 9.70592L10.0002 4.4118C10.0002 4.17779 9.91236 3.95336 9.75608 3.78788C9.5998 3.62241 9.38784 3.52945 9.16682 3.52945C8.94581 3.52945 8.73385 3.62241 8.57757 3.78788C8.42129 3.95336 8.3335 4.17779 8.3335 4.4118L8.3335 9.70592C8.3335 9.93993 8.42129 10.1644 8.57757 10.3298C8.73385 10.4953 8.94581 10.5883 9.16682 10.5883C9.38784 10.5883 9.5998 10.4953 9.75608 10.3298C9.91236 10.1644 10.0002 9.93993 10.0002 9.70592Z" fill="white"/>
<path d="M13.3336 9.70592L13.3336 4.4118C13.3336 4.17779 13.2459 3.95336 13.0896 3.78788C12.9333 3.62241 12.7213 3.52945 12.5003 3.52945C12.2793 3.52945 12.0673 3.62241 11.9111 3.78788C11.7548 3.95336 11.667 4.17779 11.667 4.4118L11.667 9.70592C11.667 9.93993 11.7548 10.1644 11.9111 10.3298C12.0673 10.4953 12.2793 10.5883 12.5003 10.5883C12.7213 10.5883 12.9333 10.4953 13.0896 10.3298C13.2459 10.1644 13.3336 9.93993 13.3336 9.70592Z" fill="white"/>
<path d="M13.3335 17.6471L13.3335 14.1176C13.3335 13.6496 13.1579 13.2008 12.8454 12.8698C12.5328 12.5389 12.1089 12.3529 11.6669 12.3529L6.6669 12.3529C6.22488 12.3529 5.80096 12.5389 5.4884 12.8698C5.17584 13.2008 5.00024 13.6496 5.00024 14.1176L5.00024 17.6471C5.00024 18.1151 5.17584 18.5639 5.4884 18.8949C5.80096 19.2258 6.22488 19.4118 6.6669 19.4118L11.6669 19.4118C12.1089 19.4118 12.5328 19.2258 12.8454 18.8949C13.1579 18.5639 13.3335 18.1151 13.3335 17.6471ZM6.6669 17.6471L6.6669 14.1176L11.6669 14.1176L11.6669 17.6471L6.6669 17.6471Z" fill="white"/>
<path d="M23.15 18.3529C22.9939 18.1886 22.7827 18.0963 22.5625 18.0963C22.3424 18.0963 22.1311 18.1886 21.975 18.3529C21.8969 18.4349 21.8349 18.5325 21.7926 18.6401C21.7503 18.7476 21.7285 18.8629 21.7285 18.9794C21.7285 19.0959 21.7503 19.2112 21.7926 19.3187C21.8349 19.4262 21.8969 19.5238 21.975 19.6059L23.9167 21.75L22.95 22.7647C22.8739 22.8493 22.8144 22.9489 22.7747 23.0579C22.735 23.1668 22.7159 23.283 22.7186 23.3998C22.7214 23.5165 22.7458 23.6316 22.7905 23.7383C22.8352 23.8451 22.8993 23.9415 22.9792 24.022C23.0591 24.1026 23.1531 24.1657 23.2561 24.2077C23.359 24.2497 23.4687 24.2699 23.579 24.267C23.6892 24.2641 23.7979 24.2383 23.8987 24.191C23.9996 24.1436 24.0906 24.0757 24.1667 23.9912L25.6667 22.3323C25.8144 22.1682 25.8968 21.9502 25.8968 21.7235C25.8968 21.4968 25.8144 21.2788 25.6667 21.1147L23.15 18.3529Z" fill="white"/>
</svg>
