<svg id="Layer_1" data-name="Layer 1" xmlns="http://www.w3.org/2000/svg" viewBox="0 0 98.41 98.32"><defs>
<style>.cls-1{fill:none;stroke:#000;stroke-miterlimit:10;stroke-width:2px;}</style></defs>
<path class="cls-1" d="M44,66,21,29a4.78,4.78,0,0,1,8-5L47,48c0-3.18,1.62-6,4-7,3.4-1.42,8.47.87,10,6a6.35,6.35,0,1,1,12.35-2.9A4.91,4.91,0,0,1,77,39a4.85,4.85,0,0,1,5,2,118.35,118.35,0,0,1,7,12,118.52,118.52,0,0,1,6,14,28.66,28.66,0,0,0,3,13L67,98A104.51,104.51,0,0,0,45,82a104.22,104.22,0,0,0-19-8c-3.05-2-4.7-5-4-7,1-2.85,6.1-3,8-3a17.76,17.76,0,0,1,10,3" transform="translate(-0.91 -0.92)"/>
<path class="cls-1" d="M45,36a21.28,21.28,0,0,0,4-15A21.28,21.28,0,0,0,42,8,23.87,23.87,0,0,0,27,2c-2.41-.15-10.23-.64-17,5C3,12.8,2.18,20.92,2,23A23.89,23.89,0,0,0,5,37c6.42,11,19.8,11.94,21,12" transform="translate(-0.91 -0.92)"/><path class="cls-1" d="M19,37a14.67,14.67,0,0,1-7-10,13.69,13.69,0,0,1,3-11,13.21,13.21,0,0,1,13-4,13.53,13.53,0,0,1,8,6,14.15,14.15,0,0,1,2,9" transform="translate(-0.91 -0.92)"/></svg>  