<svg width="60" height="60" viewBox="0 0 60 60" fill="none" xmlns="http://www.w3.org/2000/svg">
<path d="M30 60C24.0666 60 18.2664 58.2405 13.3329 54.9441C8.39943 51.6476 4.55426 46.9623 2.28363 41.4805C0.0129985 35.9987 -0.581101 29.9667 0.576455 24.1473C1.73401 18.3279 4.59123 12.9824 8.78681 8.78681C12.9824 4.59123 18.3279 1.73401 24.1473 0.576455C29.9667 -0.581101 35.9987 0.0129985 41.4805 2.28363C46.9623 4.55426 51.6476 8.39943 54.9441 13.3329C58.2405 18.2664 60 24.0666 60 30C60 37.9565 56.8393 45.5871 51.2132 51.2132C45.5871 56.8393 37.9565 60 30 60ZM30 4.6154C24.9794 4.6154 20.0716 6.10418 15.8971 8.89347C11.7226 11.6828 8.46899 15.6473 6.54769 20.2857C4.62638 24.9242 4.12368 30.0282 5.10316 34.9523C6.08263 39.8764 8.50028 44.3995 12.0504 47.9496C15.6005 51.4997 20.1236 53.9174 25.0477 54.8969C29.9718 55.8763 35.0758 55.3736 39.7143 53.4523C44.3527 51.531 48.3172 48.2774 51.1065 44.1029C53.8958 39.9285 55.3846 35.0206 55.3846 30C55.3846 23.2676 52.7102 16.8109 47.9496 12.0504C43.1891 7.28984 36.7324 4.6154 30 4.6154Z" fill="#111010"/>
<path d="M42.6924 45C42.3886 45.0017 42.0876 44.9435 41.8064 44.8287C41.5253 44.7139 41.2695 44.5446 41.0539 44.3308L28.3616 31.6385C28.1477 31.4228 27.9785 31.1671 27.8637 30.8859C27.7488 30.6048 27.6906 30.3037 27.6924 30V11.5385C27.6924 10.9264 27.9355 10.3395 28.3683 9.90667C28.801 9.4739 29.388 9.23077 30.0001 9.23077C30.6121 9.23077 31.1991 9.4739 31.6318 9.90667C32.0646 10.3395 32.3077 10.9264 32.3077 11.5385V29.0538L44.3308 41.0538C44.5471 41.2684 44.7188 41.5236 44.836 41.8048C44.9531 42.086 45.0134 42.3877 45.0134 42.6923C45.0134 42.9969 44.9531 43.2986 44.836 43.5798C44.7188 43.861 44.5471 44.1162 44.3308 44.3308C44.1152 44.5446 43.8595 44.7139 43.5783 44.8287C43.2971 44.9435 42.9961 45.0017 42.6924 45Z" fill="#111010"/>
</svg>
