<svg width="71" height="61" viewBox="0 0 71 61" fill="none" xmlns="http://www.w3.org/2000/svg">
<path d="M67.8076 11.4091H22.0384C21.3243 11.4091 20.6395 11.1218 20.1346 10.6103C19.6297 10.0989 19.3461 9.40518 19.3461 8.68186C19.3461 7.95854 19.6297 7.26485 20.1346 6.75339C20.6395 6.24193 21.3243 5.95459 22.0384 5.95459H67.8076C68.5217 5.95459 69.2065 6.24193 69.7114 6.75339C70.2163 7.26485 70.4999 7.95854 70.4999 8.68186C70.4999 9.40518 70.2163 10.0989 69.7114 10.6103C69.2065 11.1218 68.5217 11.4091 67.8076 11.4091Z" fill="#00A2E2"/>
<path d="M11.2692 11.4091H3.19231C2.47826 11.4091 1.79346 11.1218 1.28856 10.6103C0.783653 10.0989 0.5 9.40518 0.5 8.68186C0.5 7.95854 0.783653 7.26485 1.28856 6.75339C1.79346 6.24193 2.47826 5.95459 3.19231 5.95459H11.2692C11.9833 5.95459 12.6681 6.24193 13.173 6.75339C13.6779 7.26485 13.9615 7.95854 13.9615 8.68186C13.9615 9.40518 13.6779 10.0989 13.173 10.6103C12.6681 11.1218 11.9833 11.4091 11.2692 11.4091Z" fill="#00A2E2"/>
<path d="M48.9615 33.2273H3.19231C2.47826 33.2273 1.79346 32.9399 1.28856 32.4285C0.783653 31.917 0.5 31.2233 0.5 30.5C0.5 29.7767 0.783653 29.083 1.28856 28.5715C1.79346 28.06 2.47826 27.7727 3.19231 27.7727H48.9615C49.6756 27.7727 50.3604 28.06 50.8653 28.5715C51.3702 29.083 51.6538 29.7767 51.6538 30.5C51.6538 31.2233 51.3702 31.917 50.8653 32.4285C50.3604 32.9399 49.6756 33.2273 48.9615 33.2273Z" fill="#00A2E2"/>
<path d="M22.0385 55.0454H3.19231C2.47826 55.0454 1.79346 54.758 1.28856 54.2466C0.783653 53.7351 0.5 53.0414 0.5 52.3181C0.5 51.5948 0.783653 50.9011 1.28856 50.3896C1.79346 49.8782 2.47826 49.5908 3.19231 49.5908H22.0385C22.7525 49.5908 23.4373 49.8782 23.9422 50.3896C24.4471 50.9011 24.7308 51.5948 24.7308 52.3181C24.7308 53.0414 24.4471 53.7351 23.9422 54.2466C23.4373 54.758 22.7525 55.0454 22.0385 55.0454Z" fill="#00A2E2"/>
<path d="M16.654 16.8636C15.0565 16.8636 13.4949 16.3838 12.1667 15.4848C10.8384 14.5857 9.80317 13.3079 9.19185 11.8129C8.58053 10.3178 8.42058 8.67275 8.73223 7.08563C9.04388 5.49851 9.81313 4.04065 10.9427 2.8964C12.0723 1.75215 13.5115 0.972912 15.0782 0.657215C16.645 0.341518 18.269 0.503545 19.7449 1.12281C21.2207 1.74207 22.4822 2.79075 23.3697 4.13625C24.2572 5.48174 24.7309 7.06361 24.7309 8.68182C24.7309 10.8518 23.8799 12.9329 22.3652 14.4672C20.8505 16.0016 18.7961 16.8636 16.654 16.8636ZM16.654 5.95455C16.1215 5.95455 15.6009 6.1145 15.1582 6.41418C14.7154 6.71385 14.3704 7.1398 14.1666 7.63814C13.9628 8.13648 13.9095 8.68485 14.0134 9.21389C14.1173 9.74293 14.3737 10.2289 14.7502 10.6103C15.1267 10.9917 15.6065 11.2515 16.1287 11.3567C16.651 11.4619 17.1923 11.4079 17.6843 11.2015C18.1762 10.9951 18.5967 10.6455 18.8925 10.197C19.1884 9.74852 19.3463 9.22123 19.3463 8.68182C19.3463 7.9585 19.0626 7.26481 18.5577 6.75335C18.0528 6.24189 17.368 5.95455 16.654 5.95455Z" fill="#00A2E2"/>
<path d="M54.3461 38.6818C52.7486 38.6818 51.187 38.2019 49.8588 37.3029C48.5306 36.4038 47.4953 35.126 46.884 33.631C46.2727 32.136 46.1127 30.4909 46.4244 28.9037C46.736 27.3166 47.5053 25.8588 48.6348 24.7145C49.7644 23.5703 51.2036 22.791 52.7704 22.4753C54.3371 22.1596 55.9611 22.3217 57.437 22.9409C58.9129 23.5602 60.1743 24.6089 61.0618 25.9544C61.9493 27.2999 62.423 28.8817 62.423 30.4999C62.423 32.6699 61.5721 34.751 60.0573 36.2854C58.5426 37.8197 56.4882 38.6818 54.3461 38.6818ZM54.3461 27.7727C53.8136 27.7727 53.2931 27.9326 52.8503 28.2323C52.4076 28.532 52.0625 28.9579 51.8587 29.4563C51.655 29.9546 51.6016 30.503 51.7055 31.032C51.8094 31.561 52.0658 32.047 52.4423 32.4284C52.8189 32.8098 53.2986 33.0696 53.8208 33.1748C54.3431 33.28 54.8844 33.226 55.3764 33.0196C55.8683 32.8132 56.2888 32.4636 56.5847 32.0151C56.8805 31.5666 57.0384 31.0393 57.0384 30.4999C57.0384 29.7766 56.7547 29.0829 56.2498 28.5715C55.7449 28.06 55.0601 27.7727 54.3461 27.7727Z" fill="#00A2E2"/>
<path d="M27.423 60.5001C25.8255 60.5001 24.2639 60.0203 22.9357 59.1212C21.6075 58.2222 20.5722 56.9444 19.9609 55.4493C19.3496 53.9543 19.1896 52.3092 19.5013 50.7221C19.8129 49.135 20.5822 47.6771 21.7117 46.5329C22.8413 45.3886 24.2805 44.6094 25.8473 44.2937C27.414 43.978 29.038 44.14 30.5139 44.7593C31.9898 45.3785 33.2512 46.4272 34.1387 47.7727C35.0262 49.1182 35.4999 50.7001 35.4999 52.3183C35.4999 54.4883 34.649 56.5693 33.1342 58.1037C31.6195 59.6381 29.5651 60.5001 27.423 60.5001ZM27.423 49.591C26.8905 49.591 26.37 49.751 25.9272 50.0507C25.4845 50.3503 25.1394 50.7763 24.9356 51.2746C24.7319 51.773 24.6785 52.3213 24.7824 52.8504C24.8863 53.3794 25.1427 53.8654 25.5192 54.2468C25.8958 54.6282 26.3755 54.8879 26.8978 54.9932C27.42 55.0984 27.9613 55.0444 28.4533 54.838C28.9453 54.6315 29.3657 54.282 29.6616 53.8335C29.9574 53.385 30.1153 52.8577 30.1153 52.3183C30.1153 51.595 29.8317 50.9013 29.3267 50.3898C28.8218 49.8784 28.137 49.591 27.423 49.591Z" fill="#00A2E2"/>
<path d="M67.8077 33.2273H59.7308C59.0167 33.2273 58.3319 32.9399 57.827 32.4285C57.3221 31.917 57.0385 31.2233 57.0385 30.5C57.0385 29.7767 57.3221 29.083 57.827 28.5715C58.3319 28.06 59.0167 27.7727 59.7308 27.7727H67.8077C68.5217 27.7727 69.2065 28.06 69.7114 28.5715C70.2163 29.083 70.5 29.7767 70.5 30.5C70.5 31.2233 70.2163 31.917 69.7114 32.4285C69.2065 32.9399 68.5217 33.2273 67.8077 33.2273Z" fill="#00A2E2"/>
<path d="M67.8077 55.0454H32.8077C32.0936 55.0454 31.4088 54.758 30.9039 54.2466C30.399 53.7351 30.1154 53.0414 30.1154 52.3181C30.1154 51.5948 30.399 50.9011 30.9039 50.3896C31.4088 49.8782 32.0936 49.5908 32.8077 49.5908H67.8077C68.5217 49.5908 69.2065 49.8782 69.7114 50.3896C70.2163 50.9011 70.5 51.5948 70.5 52.3181C70.5 53.0414 70.2163 53.7351 69.7114 54.2466C69.2065 54.758 68.5217 55.0454 67.8077 55.0454Z" fill="#00A2E2"/>
</svg>
