<svg width="45" height="50" viewBox="0 0 45 50" fill="none" xmlns="http://www.w3.org/2000/svg">
<path d="M22 8.5H42C43.5 8.5 44.5 7.5 44.5 6C44.5 4.5 43.5 3.5 42 3.5H22C20.5 3.5 19.5 4.5 19.5 6C19.5 7.5 20.5 8.5 22 8.5Z" fill="#00A2E2"/>
<path d="M42 21H22C20.5 21 19.5 22 19.5 23.5C19.5 25 20.5 26 22 26H42C43.5 26 44.5 25 44.5 23.5C44.5 22 43.5 21 42 21Z" fill="#00A2E2"/>
<path d="M42 38.5H22C20.5 38.5 19.5 39.5 19.5 41C19.5 42.5 20.5 43.5 22 43.5H42C43.5 43.5 44.5 42.5 44.5 41C44.5 39.5 43.5 38.5 42 38.5Z" fill="#00A2E2"/>
<path d="M10 1.5L5.75 7.75L4.5 6.5C3.5 5.5 2 5.5 1 6.5C1.49012e-08 7.5 1.49012e-08 9 1 10L4.25 13.5C4.75 14 5.25 14.25 6 14.25H6.25C7 14.25 7.75 13.75 8 13.25L14 4.25C14.75 3 14.5 1.5 13.5 0.75C12.25 0 10.75 0.25 10 1.5Z" fill="#00A2E2"/>
<path d="M10 19L5.75 25.25L4.5 24C3.5 23 2 23 1 24C1.49012e-08 25 1.49012e-08 26.5 1 27.5L4.25 31C4.75 31.5 5.25 31.75 6 31.75H6.25C7 31.75 7.75 31.25 8 30.75L14 21.75C14.75 20.5 14.5 19 13.25 18.25C12.25 17.5 10.75 17.75 10 19Z" fill="#00A2E2"/>
<path d="M10 36.5L5.75 42.75L4.5 41.5C3.5 40.5 2 40.5 1 41.5C1.49012e-08 42.5 1.49012e-08 44 1 45L4.25 48.5C4.75 49 5.25 49.25 6 49.25H6.25C7 49.25 7.75 48.75 8 48.25L14 39.25C14.75 38 14.5 36.5 13.25 35.75C12.25 35 10.75 35.25 10 36.5Z" fill="#00A2E2"/>
</svg>
