<svg width="61" height="61" viewBox="0 0 61 61" fill="none" xmlns="http://www.w3.org/2000/svg">
<path d="M18.3125 30.5C22.9724 30.5 26.75 26.7224 26.75 22.0625C26.75 17.4026 22.9724 13.625 18.3125 13.625C13.6526 13.625 9.875 17.4026 9.875 22.0625C9.875 26.7224 13.6526 30.5 18.3125 30.5Z" fill="#00A2E2"/>
<path d="M27.9219 35.1875C24.6219 33.5117 20.9797 32.8438 18.3125 32.8438C13.0883 32.8438 2.375 36.0477 2.375 42.4531V47.375H19.9531V45.4918C19.9531 43.2652 20.8906 41.0328 22.5312 39.1719C23.8402 37.6859 25.673 36.3066 27.9219 35.1875Z" fill="#00A2E2"/>
<path d="M40.3438 34.25C34.2418 34.25 22.0625 38.0187 22.0625 45.5V51.125H58.625V45.5C58.625 38.0187 46.4457 34.25 40.3438 34.25Z" fill="#00A2E2"/>
<path d="M40.3438 30.5C46.0392 30.5 50.6562 25.8829 50.6562 20.1875C50.6562 14.4921 46.0392 9.875 40.3438 9.875C34.6483 9.875 30.0312 14.4921 30.0312 20.1875C30.0312 25.8829 34.6483 30.5 40.3438 30.5Z" fill="#00A2E2"/>
</svg>
