<svg width="61" height="61" viewBox="0 0 61 61" fill="none" xmlns="http://www.w3.org/2000/svg">
<path d="M44.5 54.5C46.7091 54.5 48.5 52.7091 48.5 50.5C48.5 48.2909 46.7091 46.5 44.5 46.5C42.2909 46.5 40.5 48.2909 40.5 50.5C40.5 52.7091 42.2909 54.5 44.5 54.5Z" fill="#00A2E2"/>
<path d="M24.5 54.5C26.7091 54.5 28.5 52.7091 28.5 50.5C28.5 48.2909 26.7091 46.5 24.5 46.5C22.2909 46.5 20.5 48.2909 20.5 50.5C20.5 52.7091 22.2909 54.5 24.5 54.5Z" fill="#00A2E2"/>
<path d="M4.5 6.5H8.256C9.586 6.5 10.758 7.376 11.134 8.654L19.656 37.63C20.156 39.33 21.718 40.5 23.492 40.5H45.444C47.248 40.5 48.828 39.292 49.304 37.552L54.5 18.5H44.5" stroke="#00A2E2" stroke-width="2" stroke-miterlimit="10" stroke-linecap="round" stroke-linejoin="round"/>
<path d="M36.5 18.5V29.672L41.086 25.086C41.868 24.304 43.132 24.304 43.914 25.086C44.696 25.868 44.696 27.132 43.914 27.914L35.914 35.914C35.524 36.304 35.012 36.5 34.5 36.5C33.988 36.5 33.476 36.304 33.086 35.914L25.086 27.914C24.304 27.132 24.304 25.868 25.086 25.086C25.868 24.304 27.132 24.304 27.914 25.086L32.5 29.672V18.5H14.5L21.5 40.5H48.5L54.5 18.5H36.5Z" fill="#00A2E2"/>
<path d="M36.5 6.5C36.5 5.396 35.604 4.5 34.5 4.5C33.396 4.5 32.5 5.396 32.5 6.5V16.5H36.5V6.5Z" fill="#00A2E2"/>
<path d="M36.5 18.5H46.5" stroke="#00A2E2" stroke-width="2" stroke-miterlimit="10" stroke-linejoin="round"/>
<path d="M14.5 18.5H32.5" stroke="#00A2E2" stroke-width="2" stroke-miterlimit="10" stroke-linejoin="round"/>
</svg>
